<svg id="Layer_1" data-name="Layer 1" xmlns="http://www.w3.org/2000/svg" viewBox="0 0 42.58 47.42"><defs><style>.cls-1{fill:#0b5f73;}</style></defs><title>logo</title><path class="cls-1" d="M61.29,17.47V52.53a6.17,6.17,0,0,1-6.18,6.18H28.8L33,52.53H50.63a4.28,4.28,0,0,0,4.48-4.07v-6.3a4.28,4.28,0,0,0-4.48-4.07H33A4.41,4.41,0,0,1,28.62,35,4.41,4.41,0,0,1,33,31.91H50.63a4.28,4.28,0,0,0,4.48-4.06V21.54a4.28,4.28,0,0,0-4.48-4.07H32.81L28.6,11.29H55.11A6.18,6.18,0,0,1,61.29,17.47Z" transform="translate(-18.71 -11.29)"/><path class="cls-1" d="M27,17.47V52.53c0,2.29-1.66,4.29-4.14,5.35-2.47-1.06-4.14-3.06-4.14-5.35V17.47c0-2.28,1.67-4.28,4.14-5.35C25.33,13.18,27,15.18,27,17.47Z" transform="translate(-18.71 -11.29)"/></svg>