<svg id="Layer_1" data-name="Layer 1" xmlns="http://www.w3.org/2000/svg" viewBox="0 0 240 144"><defs><style>.cls-1{fill:#0b5f73;}.cls-2{fill:#fff;}</style></defs><title>post</title><rect class="cls-1" width="240" height="144"/><path class="cls-2" d="M99.3,44.1V99.9c0,3.64-2.64,6.82-6.58,8.51-3.93-1.69-6.59-4.87-6.59-8.51V44.1c0-3.62,2.66-6.81,6.59-8.51C96.65,37.28,99.3,40.46,99.3,44.1Z"/><path class="cls-2" d="M153.87,44.1V99.9a9.82,9.82,0,0,1-9.8,9.83h-41.9l6.68-9.83h28.06A6.82,6.82,0,0,0,144,93.42v-10a6.82,6.82,0,0,0-7.13-6.47H108.85a7,7,0,0,1-7-4.92,7,7,0,0,1,7-4.92h28.06A6.81,6.81,0,0,0,144,60.62v-10a6.82,6.82,0,0,0-7.13-6.48H108.55l-6.7-9.83H144A9.83,9.83,0,0,1,153.87,44.1Z"/></svg>